Coordinates
version=1
nRows=32
nColumns=22
inDegrees=yes

Units are S.I. units (second, meters, Newtons, ...)
If the header above contains a line with 'inDegrees', this indicates whether rotational values are in degrees (yes) or radians (no).

endheader
time	pelvis_tilt	pelvis_list	pelvis_rotation	pelvis_tx	pelvis_ty	pelvis_tz	hip_flexion_r	hip_adduction_r	hip_rotation_r	knee_angle_r	ankle_angle_r	subtalar_angle_r	hip_flexion_l	hip_adduction_l	hip_rotation_l	knee_angle_l	ankle_angle_l	subtalar_angle_l	lumbar_extension	lumbar_bending	lumbar_rotation
      1.32000000	     -7.42331356	      0.09293951	     -2.55028919	     -0.92523833	      0.95561292	     -0.18354461	     41.62019356	     -1.19189595	     -8.99202776	    -34.82995728	     13.25399109	     -5.35335707	      6.83518138	      3.14467736	     -9.93076999	    -22.12246780	     30.59320458	     -2.15854545	     -5.78797520	     -0.44898223	      1.61534244
      1.33000000	     -7.40444559	      0.13838569	     -2.63595980	     -0.91999734	      0.95459461	     -0.18286989	     41.83959215	     -1.23619580	     -9.68589653	    -33.86834982	     13.13841132	     -5.13893246	      6.46632141	      3.16457571	    -10.03399462	    -22.12447475	     30.85885449	     -2.06925820	     -5.83222369	     -0.49677492	      1.59003445
      1.34000000	     -7.40447577	      0.22391407	     -2.68377132	     -0.91460529	      0.95354328	     -0.18225556	     42.06309797	     -1.36356986	    -10.49936892	    -32.95984256	     13.04239341	     -4.99722491	      6.08573613	      3.22822428	    -10.15087357	    -22.07184328	     31.08833428	     -1.96075452	     -5.84917323	     -0.58204696	      1.51590407
      1.35000000	     -7.42055182	      0.35799246	     -2.70177292	     -0.90908583	      0.95244400	     -0.18169869	     42.29891060	     -1.57852386	    -11.42352032	    -32.12637235	     12.93264378	     -4.91862597	      5.70257030	      3.34195665	    -10.29246621	    -21.98796476	     31.28909162	     -1.85770074	     -5.84673489	     -0.71419392	      1.43382550
      1.36000000	     -7.42927938	      0.47283749	     -2.66259822	     -0.90335926	      0.95139536	     -0.18118915	     42.46604937	     -1.81381612	    -12.44125748	    -31.29896866	     12.85216018	     -4.88279934	      5.27139509	      3.43643884	    -10.40559672	    -21.84605986	     31.45269929	     -1.66406910	     -5.84558291	     -0.81020396	      1.24708309
      1.37000000	     -7.44332185	      0.60657189	     -2.60240116	     -0.89747997	      0.95030916	     -0.18067898	     42.62097508	     -2.08350247	    -13.50458771	    -30.54178536	     12.74433081	     -4.90271841	      4.83676062	      3.54535741	    -10.52985610	    -21.70330065	     31.60077032	     -1.45666895	     -5.83654363	     -0.92513739	      1.06369948
      1.38000000	     -7.45739852	      0.72944091	     -2.50601113	     -0.89143387	      0.94920029	     -0.18015312	     42.73999991	     -2.35511904	    -14.58151971	    -29.83967949	     12.62425560	     -4.96783389	      4.40239258	      3.63744908	    -10.61947999	    -21.58330518	     31.73660916	     -1.23875374	     -5.82445440	     -1.02453337	      0.85055343
      1.39000000	     -7.46973350	      0.82747555	     -2.39286539	     -0.88519925	      0.94806555	     -0.17957281	     42.81446541	     -2.59306406	    -15.61310901	    -29.18749797	     12.51152427	     -5.07263709	      3.96960486	      3.69636792	    -10.67614871	    -21.49855515	     31.86704997	     -1.01098628	     -5.80844365	     -1.09151020	      0.62650513
      1.40000000	     -7.47420821	      0.89500746	     -2.26281313	     -0.87876534	      0.94691629	     -0.17891644	     42.83613042	     -2.78475577	    -16.56267205	    -28.59351780	     12.41402177	     -5.19911554	      3.53929385	      3.71484518	    -10.68430800	    -21.46658695	     31.99373567	     -0.77907985	     -5.79577788	     -1.12435887	      0.39445215
      1.41000000	     -7.47058528	      0.93197629	     -2.12616999	     -0.87212624	      0.94575062	     -0.17815896	     42.80686188	     -2.91488357	    -17.37199548	    -28.06406981	     12.34574042	     -5.32801512	      3.11015211	      3.69137345	    -10.65215439	    -21.48804954	     32.11514901	     -0.54967333	     -5.78333181	     -1.12276482	      0.16782390
      1.42000000	     -7.42490414	      0.92486579	     -2.00998019	     -0.86525690	      0.94463473	     -0.17722581	     42.68652944	     -2.94728274	    -18.00431322	    -27.59993485	     12.30100791	     -5.51457756	      2.64253180	      3.60525393	    -10.61733383	    -21.56155710	     32.23281078	     -0.23877291	     -5.81172764	     -1.08099193	     -0.00819672
      1.43000000	     -7.43567691	      0.92171546	     -1.84855550	     -0.85825252	      0.94340636	     -0.17626349	     42.60446983	     -2.97093807	    -18.44939811	    -27.24892497	     12.28019337	     -5.57435206	      2.26486251	      3.52099107	    -10.44911665	    -21.70935489	     32.32181385	     -0.07821481	     -5.76879891	     -1.03954842	     -0.23650894
      1.44000000	     -7.41213929	      0.86944915	     -1.71393321	     -0.85102122	      0.94224541	     -0.17511186	     42.43907176	     -2.88243329	    -18.67456180	    -26.97070776	     12.23021297	     -5.69757015	      1.85574436	      3.36481332	    -10.29762653	    -21.90588301	     32.39922557	      0.16563006	     -5.75690578	     -0.94830396	     -0.42321462
      1.45000000	     -7.38723819	      0.80603632	     -1.60957357	     -0.84358259	      0.94110292	     -0.17382739	     42.25688731	     -2.72728007	    -18.67807584	    -26.81967679	     12.08852144	     -5.88719768	      1.44218985	      3.18687833	    -10.15342824	    -22.12685059	     32.43579381	      0.46586567	     -5.73413739	     -0.84044167	     -0.58076728
      1.46000000	     -7.37430309	      0.74902336	     -1.52469459	     -0.83596958	      0.93998279	     -0.17238940	     42.06930504	     -2.52591392	    -18.47935815	    -26.78236065	     11.84713116	     -6.20558968	      1.05153357	      2.99827659	    -10.02810824	    -22.39102120	     32.43236946	      0.83778480	     -5.68792372	     -0.74912415	     -0.69455476
      1.47000000	     -7.39908590	      0.68418309	     -1.44510728	     -0.82819500	      0.93888189	     -0.17087658	     41.92218530	     -2.29801133	    -18.15988706	    -26.89222146	     11.38991003	     -6.58750161	      0.70827515	      2.79162608	     -9.88492355	    -22.68933689	     32.35759882	      1.19524663	     -5.58898956	     -0.64219637	     -0.79464011
      1.48000000	     -7.43861058	      0.61646057	     -1.38277451	     -0.82023239	      0.93787360	     -0.16928206	     41.79447147	     -2.04832007	    -17.76097366	    -27.13635660	     10.71005069	     -7.11804403	      0.37360557	      2.57347661	     -9.75243696	    -22.99304738	     32.20596161	      1.61555324	     -5.46026128	     -0.52666617	     -0.86312441
      1.49000000	     -7.48434568	      0.53876629	     -1.33416787	     -0.81207086	      0.93700451	     -0.16761514	     41.67931897	     -1.78281409	    -17.34151484	    -27.49604799	      9.81542379	     -7.83201270	      0.03983071	      2.33733583	     -9.62226128	    -23.30513842	     31.97771529	      2.11507312	     -5.30977266	     -0.39212131	     -0.93243310
      1.50000000	     -7.52145555	      0.43897788	     -1.30751337	     -0.80373669	      0.93631145	     -0.16586832	     41.57161028	     -1.49665795	    -16.94509165	    -27.96238644	      8.74877611	     -8.73724313	     -0.28406793	      2.06817427	     -9.50237843	    -23.67256444	     31.65642608	      2.69977314	     -5.16146300	     -0.22664320	     -0.95840788
      1.51000000	     -7.54082742	      0.30660756	     -1.31664067	     -0.79521520	      0.93582914	     -0.16400862	     41.46113363	     -1.17572841	    -16.58445684	    -28.51198673	      7.61047025	     -9.77532057	     -0.60446621	      1.75859916	     -9.38157985	    -24.10317859	     31.23863195	      3.36059941	     -5.02190404	     -0.02059634	     -0.95063489
      1.52000000	     -7.52974229	      0.12711556	     -1.37686605	     -0.78651088	      0.93558798	     -0.16201217	     41.32945902	     -0.79672115	    -16.25046508	    -29.12326380	      6.52597254	    -10.92560999	     -0.91588965	      1.39499387	     -9.25639500	    -24.63500794	     30.72769490	      4.12780353	     -4.90895560	      0.24447188	     -0.89659898
      1.53000000	     -7.47650606	     -0.09724578	     -1.48731738	     -0.77762243	      0.93562016	     -0.15987865	     41.15736312	     -0.36371005	    -15.93977098	    -29.78190724	      5.60085211	    -12.08054756	     -1.22627517	      0.98782925	     -9.08894030	    -25.27286222	     30.10812868	      4.99727542	     -4.83661998	      0.56201063	     -0.78861814
      1.54000000	     -7.40280392	     -0.39068394	     -1.66158826	     -0.76859364	      0.93588151	     -0.15754801	     40.94673258	      0.17302383	    -15.60455504	    -30.44189175	      4.91616032	    -13.10722497	     -1.47628693	      0.49704410	     -8.93297059	    -26.08771186	     29.40394790	      5.93248484	     -4.78483527	      0.95825737	     -0.64201827
      1.55000000	     -7.29262254	     -0.70761107	     -1.87940881	     -0.75943689	      0.93640795	     -0.15510653	     40.67856355	      0.74618868	    -15.28053294	    -31.10605603	      4.51158592	    -13.98586864	     -1.69118221	     -0.00764178	     -8.70248018	    -27.04888756	     28.53913089	      6.95078081	     -4.77528536	      1.38361006	     -0.47415588
      1.56000000	     -7.18749025	     -1.06856040	     -2.13034853	     -0.75022326	      0.93711586	     -0.15252220	     40.36838802	      1.39183650	    -14.93160146	    -31.71051011	      4.31726673	    -14.63904313	     -1.79163540	     -0.57126180	     -8.46347409	    -28.21536097	     27.57161784	      7.97094914	     -4.76568115	      1.85847246	     -0.32129225
      1.57000000	     -7.06970363	     -1.40692442	     -2.38762006	     -0.74092384	      0.93802441	     -0.14990474	     40.00028822	      2.00774377	    -14.63226643	    -32.27350893	      4.39323117	    -15.16102605	     -1.81625609	     -1.10414860	     -8.15199249	    -29.53022436	     26.39006032	      9.09993845	     -4.76901066	      2.30788415	     -0.17247146
      1.58000000	     -6.98395259	     -1.74333282	     -2.63748992	     -0.73163993	      0.93903464	     -0.14723483	     39.60248477	      2.62347530	    -14.35947335	    -32.74156137	      4.61026395	    -15.49534921	     -1.67501372	     -1.65346638	     -7.82602825	    -31.05836050	     25.05041428	     10.18880389	     -4.74220619	      2.75662446	     -0.08403053
      1.59000000	     -6.93362947	     -2.05409488	     -2.86434790	     -0.72240295	      0.94011654	     -0.14455431	     39.18013485	      3.19986046	    -14.14800351	    -33.11470598	      4.95746767	    -15.70994072	     -1.35926188	     -2.19328682	     -7.47189161	    -32.78884552	     23.52424138	     11.24719546	     -4.67950397	      3.17741926	     -0.05363042
      1.60000000	     -6.92619813	     -2.33190396	     -3.06053925	     -0.71325111	      0.94122373	     -0.14187562	     38.74334281	      3.72436581	    -14.00972197	    -33.39203045	      5.39933042	    -15.84999835	     -0.85069638	     -2.72032980	     -7.09457174	    -34.72491931	     21.81345913	     12.24787268	     -4.57372683	      3.56089277	     -0.08198349
      1.61000000	     -6.96440997	     -2.56975092	     -3.22907569	     -0.70423679	      0.94232367	     -0.13921627	     38.30419728	      4.19166139	    -13.93473268	    -33.57951617	      5.90730858	    -15.94845761	     -0.14295832	     -3.22783492	     -6.70573567	    -36.85841994	     19.92735357	     13.12955406	     -4.42633583	      3.90299044	     -0.16054446
      1.62000000	     -7.05342264	     -2.77816816	     -3.37054636	     -0.69540290	      0.94338311	     -0.13657541	     37.87492522	      4.61305530	    -13.91998586	    -33.68287066	      6.45844021	    -16.02686674	      0.77016453	     -3.72855251	     -6.30699741	    -39.17752512	     17.90691432	     13.86677650	     -4.23527179	      4.21267829	     -0.27181813
      1.63000000	     -7.18954576	     -2.95172045	     -3.49676305	     -0.68679011	      0.94438449	     -0.13396467	     37.46663623	      4.98808549	    -13.94772959	    -33.71834501	      7.01232496	    -16.08997440	      1.87871269	     -4.21604191	     -5.91849332	    -41.66005690	     15.78068454	     14.45599689	     -4.01117131	      4.48612146	     -0.39068722
